<svg width="34" height="34" viewBox="0 0 34 34" fill="none" xmlns="http://www.w3.org/2000/svg">
<path d="M15.5226 17.5015C15.4567 17.4357 15.4043 17.3575 15.3686 17.2715C15.3329 17.1854 15.3145 17.0932 15.3145 17C15.3145 16.9068 15.3329 16.8146 15.3686 16.7285C15.4043 16.6425 15.4567 16.5643 15.5226 16.4985L22.0194 10.0031C22.4181 9.60463 22.6421 9.06413 22.6422 8.5005C22.6424 7.93686 22.4186 7.39626 22.0201 6.99762C21.6217 6.59898 21.0812 6.37495 20.5176 6.37482C19.9539 6.37468 19.4133 6.59846 19.0147 6.99691L12.5179 13.4937C11.5896 14.4245 11.0684 15.6855 11.0684 17C11.0684 18.3145 11.5896 19.5754 12.5179 20.5062L19.0147 27.0031C19.4133 27.4015 19.9539 27.6253 20.5176 27.6252C21.0812 27.625 21.6217 27.401 22.0201 27.0024C22.4186 26.6037 22.6424 26.0631 22.6422 25.4995C22.6421 24.9359 22.4181 24.3954 22.0194 23.9969L15.5226 17.5015Z" fill="white"/>
</svg>
