<svg width="34" height="34" viewBox="0 0 34 34" fill="none" xmlns="http://www.w3.org/2000/svg">
<path d="M30.1041 12.9625C26.8316 7.81996 22.0433 4.85913 16.9999 4.85913C14.4783 4.85913 12.0274 5.5958 9.78909 6.96996C7.55075 8.3583 5.53909 10.3841 3.89575 12.9625C2.47909 15.1866 2.47909 18.7991 3.89575 21.0233C7.16825 26.18 11.9566 29.1266 16.9999 29.1266C19.5216 29.1266 21.9724 28.39 24.2108 27.0158C26.4491 25.6275 28.4608 23.6016 30.1041 21.0233C31.5208 18.8133 31.5208 15.1866 30.1041 12.9625ZM16.9999 22.7233C13.8266 22.7233 11.2766 20.1591 11.2766 17C11.2766 13.8408 13.8266 11.2766 16.9999 11.2766C20.1733 11.2766 22.7233 13.8408 22.7233 17C22.7233 20.1591 20.1733 22.7233 16.9999 22.7233Z" fill="black"/>
<path d="M16.9999 12.9484C14.7757 12.9484 12.9624 14.7617 12.9624 17C12.9624 19.2242 14.7757 21.0375 16.9999 21.0375C19.2241 21.0375 21.0516 19.2242 21.0516 17C21.0516 14.7759 19.2241 12.9484 16.9999 12.9484Z" fill="black"/>
</svg>
