<svg width="40" height="40" viewBox="0 0 40 40" fill="none" xmlns="http://www.w3.org/2000/svg">
<g clip-path="url(#clip0_8_52)">
<path d="M20 40C31.0457 40 40 31.0457 40 20C40 8.95431 31.0457 0 20 0C8.95431 0 0 8.95431 0 20C0 31.0457 8.95431 40 20 40Z" fill="white"/>
<path d="M24.2491 8.88892H15.7602C11.9735 8.88892 8.89795 11.9645 8.89795 15.7511V24.24C8.89795 28.0267 11.9735 31.1023 15.7602 31.1023H24.2491C28.0357 31.1023 31.1113 28.0267 31.1113 24.24V15.7511C31.1113 11.9645 28.0357 8.88892 24.2491 8.88892ZM28.6313 24.2489C28.6313 26.6667 26.6668 28.64 24.2402 28.64H15.7513C13.3335 28.64 11.3602 26.6756 11.3602 24.2489V15.76C11.3602 13.3422 13.3246 11.3689 15.7513 11.3689H24.2402C26.658 11.3689 28.6313 13.3334 28.6313 15.76V24.2489Z" fill="black"/>
<path d="M19.9998 14.3201C16.8709 14.3201 14.3198 16.8712 14.3198 20.0001C14.3198 23.129 16.8709 25.6801 19.9998 25.6801C23.1287 25.6801 25.6798 23.129 25.6798 20.0001C25.6798 16.8712 23.1287 14.3201 19.9998 14.3201ZM19.9998 23.449C18.0976 23.449 16.5509 21.9023 16.5509 20.0001C16.5509 18.0978 18.0976 16.5512 19.9998 16.5512C21.902 16.5512 23.4487 18.0978 23.4487 20.0001C23.4487 21.9023 21.902 23.449 19.9998 23.449Z" fill="black"/>
<path d="M26.1126 14.9426C26.6359 14.8574 26.991 14.3641 26.9058 13.8408C26.8206 13.3175 26.3273 12.9624 25.804 13.0476C25.2807 13.1328 24.9255 13.6261 25.0108 14.1494C25.096 14.6727 25.5893 15.0278 26.1126 14.9426Z" fill="black"/>
</g>
<defs>
<clipPath id="clip0_8_52">
<rect width="40" height="40" fill="white"/>
</clipPath>
</defs>
</svg>
