<svg width="40" height="40" viewBox="0 0 40 40" fill="none" xmlns="http://www.w3.org/2000/svg">
<g clip-path="url(#clip0_9_492)">
<path d="M20 39.9998C31.0457 39.9998 40 31.0455 40 19.9998C40 8.95406 31.0457 -0.000244141 20 -0.000244141C8.95431 -0.000244141 0 8.95406 0 19.9998C0 31.0455 8.95431 39.9998 20 39.9998Z" fill="white"/>
<path d="M31.9499 21.609V29.8545H27.1694V22.1616C27.1694 20.23 26.4792 18.9108 24.7483 18.9108C23.4274 18.9108 22.6427 19.7989 22.2961 20.6589C22.1703 20.9662 22.1378 21.3929 22.1378 21.824V29.8542H17.3569C17.3569 29.8542 17.4211 16.8248 17.3569 15.4761H22.1382V17.5136C22.1286 17.5297 22.115 17.5454 22.1064 17.5607H22.1382V17.5136C22.7735 16.5361 23.9065 15.1385 26.4467 15.1385C29.5919 15.1385 31.9499 17.1935 31.9499 21.609ZM12.3557 8.54541C10.7203 8.54541 9.65039 9.61889 9.65039 11.0293C9.65039 12.4097 10.6893 13.5142 12.2929 13.5142H12.3239C13.9914 13.5142 15.0281 12.4097 15.0281 11.0293C14.9964 9.61889 13.9914 8.54541 12.3557 8.54541ZM9.93454 29.8545H14.7137V15.4761H9.93454V29.8545Z" fill="black"/>
</g>
<defs>
<clipPath id="clip0_9_492">
<rect width="40" height="40" fill="white"/>
</clipPath>
</defs>
</svg>
